<?xml version="1.0" ?><!DOCTYPE svg  PUBLIC '-//W3C//DTD SVG 1.0//EN'  'http://www.w3.org/TR/2001/REC-SVG-20010904/DTD/svg10.dtd'><svg enable-background="new 0 0 24 24" id="Layer_1" version="1.0" viewBox="0 0 24 24" xml:space="preserve" xmlns="http://www.w3.org/2000/svg" xmlns:xlink="http://www.w3.org/1999/xlink"><path d="M15,18H9c0,0.2,0,0.8,0,1c0,1.7,1.3,2,3,2s3-0.3,3-2C15,18.8,15,18.2,15,18z"/><path d="M13.5,20h-3c0,0.1,0,0.4,0,0.5c0,0.8,0.7,1.5,1.5,1.5s1.5-0.7,1.5-1.5C13.5,20.4,13.5,20.1,13.5,20z"/><path d="M19,9c0-3.9-3.2-7.1-7.1-7C8.2,2.1,5.1,5.1,5,8.7c-0.1,2.4,1,4.6,2.8,5.9C8.6,15.2,9,16.1,9,17v0h6v0c0-0.9,0.4-1.8,1.1-2.4  C17.9,13.4,19,11.3,19,9z"/></svg>